<svg width="184" height="182" viewBox="0 0 184 182" fill="none" xmlns="http://www.w3.org/2000/svg">
<g id="Capa 1">
<g id="Group">
<g id="Group_2">
<path id="Vector" d="M93.8022 0.486328H91.74V124.292H93.8022V0.486328Z" fill="#FFB259"/>
<path id="Vector_2" d="M88.6914 23.2068H86.6292V124.31H88.6914V23.2068Z" fill="#FFB259"/>
<path id="Vector_3" d="M83.778 36.6738H81.7158V105.821H83.778V36.6738Z" fill="#FFB259"/>
<path id="Vector_4" d="M98.895 23.2068H96.8328V124.31H98.895V23.2068Z" fill="#FFB259"/>
<path id="Vector_5" d="M103.826 36.6738H101.764V105.821H103.826V36.6738Z" fill="#FFB259"/>
</g>
<g id="Group_3">
<path id="Vector_6" d="M93.8022 160.156H91.74V181.711H93.8022V160.156Z" fill="#FFB259"/>
<path id="Vector_7" d="M88.6915 160.156H86.6292V177.551H88.6915V160.156Z" fill="#FFB259"/>
<path id="Vector_8" d="M98.895 160.156H96.8328V177.551H98.895V160.156Z" fill="#FFB259"/>
</g>
<g id="Group_4">
<path id="Vector_9" d="M21.8395 151.656V134.136H29.8015C30.6264 134.136 31.3796 134.298 32.061 134.603C32.7424 134.908 33.3163 135.338 33.8184 135.84C34.3205 136.36 34.6971 136.934 34.984 137.579C35.2709 138.225 35.3964 138.871 35.3964 139.552C35.3964 140.431 35.1992 141.238 34.8226 141.991C34.446 142.744 33.926 143.39 33.2445 143.892C32.5631 144.394 31.7741 144.717 30.8775 144.824L35.6654 151.638H34.0694L29.4249 145.021H23.2024V151.638H21.8216L21.8395 151.656ZM23.2203 143.892H29.945C30.7699 143.892 31.4872 143.677 32.1148 143.282C32.7245 142.87 33.1907 142.332 33.5315 141.686C33.8722 141.023 34.0336 140.323 34.0336 139.588C34.0336 138.853 33.8363 138.135 33.4597 137.472C33.0652 136.826 32.5631 136.288 31.9175 135.894C31.272 135.499 30.5547 135.284 29.7657 135.284H23.2203V143.892Z" fill="white"/>
<path id="Vector_10" d="M53.1316 150.527V151.656H40.3458V134.136H52.8805V135.266H41.7266V142.152H51.4818V143.246H41.7266V150.527H53.1316Z" fill="white"/>
<path id="Vector_11" d="M68.7865 137.041C68.4817 136.737 68.141 136.45 67.7644 136.217C67.3878 135.983 66.9754 135.786 66.545 135.625C66.1146 135.463 65.6484 135.356 65.1463 135.266C64.6441 135.176 64.1062 135.141 63.5323 135.141C61.6674 135.141 60.2866 135.463 59.4438 136.109C58.583 136.755 58.1526 137.633 58.1526 138.727C58.1526 139.462 58.3499 140.054 58.7265 140.484C59.121 140.915 59.7127 141.273 60.5556 141.525C61.3805 141.794 62.4564 142.045 63.7655 142.296C65.1463 142.565 66.3477 142.869 67.3519 143.228C68.3562 143.587 69.1452 144.071 69.6832 144.663C70.2391 145.272 70.508 146.097 70.508 147.119C70.508 147.891 70.3466 148.572 70.0239 149.146C69.7011 149.72 69.2348 150.204 68.6251 150.58C68.0154 150.957 67.2802 151.244 66.4553 151.441C65.6125 151.638 64.68 151.746 63.6579 151.746C62.6357 151.746 61.7212 151.638 60.8245 151.441C59.9279 151.244 59.0851 150.957 58.2782 150.58C57.4891 150.204 56.7539 149.72 56.0545 149.128L56.7898 148.124C57.1843 148.518 57.6326 148.877 58.1347 149.182C58.6368 149.487 59.1748 149.738 59.7486 149.953C60.3404 150.168 60.968 150.329 61.6315 150.455C62.295 150.58 62.9944 150.634 63.7117 150.634C65.3794 150.634 66.6884 150.347 67.6389 149.791C68.5893 149.218 69.0555 148.375 69.0555 147.263C69.0555 146.492 68.8403 145.864 68.4099 145.398C67.9796 144.914 67.3161 144.537 66.4015 144.232C65.5049 143.927 64.3752 143.641 63.0302 143.39C61.6853 143.121 60.5376 142.834 59.5872 142.493C58.6368 142.17 57.9374 141.722 57.4533 141.166C56.9691 140.61 56.736 139.857 56.736 138.906C56.736 137.848 57.0229 136.97 57.5788 136.234C58.1526 135.499 58.9416 134.943 59.9638 134.567C60.9859 134.19 62.1695 133.993 63.4965 133.993C64.3214 133.993 65.0925 134.065 65.8098 134.208C66.527 134.352 67.1726 134.585 67.7823 134.89C68.392 135.194 68.9479 135.571 69.468 136.037L68.7686 137.023L68.7865 137.041Z" fill="white"/>
<path id="Vector_12" d="M82.9173 151.656V134.136H89.3012C91.3275 134.136 93.0311 134.531 94.3581 135.302C95.703 136.091 96.7073 137.131 97.3887 138.458C98.0701 139.785 98.3929 141.256 98.3929 142.87C98.3929 144.645 98.0163 146.187 97.2811 147.514C96.5459 148.823 95.4879 149.845 94.125 150.58C92.7621 151.298 91.1482 151.674 89.2832 151.674H82.8993L82.9173 151.656ZM97.03 142.87C97.03 141.399 96.7252 140.09 96.1334 138.942C95.5237 137.795 94.663 136.88 93.5153 136.235C92.3676 135.589 90.9689 135.266 89.3191 135.266H84.316V150.527H89.3191C90.9868 150.527 92.4035 150.186 93.5691 149.522C94.7168 148.841 95.5954 147.926 96.1693 146.779C96.761 145.613 97.048 144.322 97.048 142.887L97.03 142.87Z" fill="white"/>
<path id="Vector_13" d="M110.802 151.782C109.475 151.782 108.256 151.531 107.162 151.029C106.068 150.527 105.118 149.863 104.329 149.02C103.539 148.177 102.93 147.227 102.499 146.169C102.069 145.111 101.854 144.017 101.854 142.905C101.854 141.794 102.087 140.628 102.535 139.57C102.984 138.512 103.611 137.561 104.436 136.737C105.261 135.912 106.211 135.248 107.305 134.764C108.399 134.28 109.583 134.029 110.856 134.029C112.201 134.029 113.42 134.28 114.514 134.8C115.608 135.32 116.54 136.001 117.33 136.844C118.119 137.705 118.728 138.655 119.159 139.713C119.589 140.771 119.804 141.829 119.804 142.923C119.804 144.107 119.571 145.237 119.123 146.295C118.674 147.353 118.047 148.303 117.222 149.128C116.397 149.953 115.447 150.616 114.353 151.083C113.259 151.567 112.075 151.8 110.802 151.8V151.782ZM103.217 142.887C103.217 143.892 103.414 144.86 103.791 145.775C104.167 146.689 104.687 147.514 105.369 148.249C106.05 148.966 106.839 149.558 107.772 149.971C108.704 150.401 109.726 150.616 110.838 150.616C111.95 150.616 113.008 150.401 113.94 149.953C114.873 149.504 115.68 148.913 116.343 148.177C117.007 147.442 117.527 146.617 117.867 145.703C118.226 144.788 118.388 143.856 118.388 142.905C118.388 141.901 118.208 140.933 117.832 140.018C117.455 139.104 116.935 138.279 116.254 137.544C115.572 136.826 114.765 136.234 113.833 135.822C112.9 135.392 111.896 135.176 110.82 135.176C109.672 135.176 108.614 135.392 107.682 135.84C106.749 136.288 105.942 136.88 105.297 137.615C104.633 138.351 104.131 139.175 103.755 140.09C103.378 141.005 103.199 141.937 103.199 142.887H103.217Z" fill="white"/>
<path id="Vector_14" d="M141.843 151.656V136.575L134.311 148.375H133.397L125.865 136.575V151.656H124.484V134.136H125.865L133.863 146.671L141.861 134.136H143.242V151.656H141.861H141.843Z" fill="white"/>
<path id="Vector_15" d="M156.942 151.782C155.418 151.782 154.127 151.531 153.105 151.047C152.082 150.562 151.258 149.881 150.648 149.038C150.038 148.195 149.59 147.245 149.321 146.187C149.052 145.129 148.908 144.053 148.908 142.959V134.154H150.289V142.959C150.289 143.91 150.397 144.86 150.612 145.774C150.827 146.689 151.186 147.514 151.688 148.249C152.19 148.984 152.854 149.558 153.714 149.989C154.575 150.419 155.633 150.634 156.924 150.634C158.215 150.634 159.291 150.419 160.152 149.971C161.013 149.522 161.676 148.931 162.178 148.213C162.681 147.478 163.021 146.653 163.236 145.739C163.452 144.824 163.541 143.892 163.541 142.959V134.154H164.922V142.959C164.922 144.125 164.779 145.237 164.51 146.312C164.223 147.37 163.774 148.321 163.147 149.146C162.519 149.971 161.694 150.616 160.69 151.1C159.686 151.585 158.431 151.818 156.96 151.818L156.942 151.782Z" fill="white"/>
<path id="Vector_16" d="M181.761 137.041C181.456 136.737 181.115 136.45 180.738 136.217C180.362 135.983 179.949 135.786 179.519 135.625C179.089 135.463 178.622 135.356 178.12 135.266C177.618 135.176 177.08 135.141 176.506 135.141C174.641 135.141 173.261 135.463 172.418 136.109C171.557 136.755 171.127 137.633 171.127 138.727C171.127 139.462 171.324 140.054 171.7 140.484C172.095 140.915 172.687 141.273 173.53 141.525C174.354 141.794 175.43 142.045 176.739 142.296C178.12 142.565 179.322 142.869 180.326 143.228C181.33 143.587 182.119 144.071 182.657 144.663C183.213 145.272 183.482 146.097 183.482 147.119C183.482 147.891 183.321 148.572 182.998 149.146C182.675 149.72 182.209 150.204 181.599 150.58C180.989 150.957 180.254 151.244 179.429 151.441C178.587 151.638 177.654 151.746 176.632 151.746C175.61 151.746 174.695 151.638 173.799 151.441C172.902 151.244 172.059 150.957 171.252 150.58C170.463 150.204 169.728 149.72 169.029 149.128L169.764 148.124C170.158 148.518 170.607 148.877 171.109 149.182C171.611 149.487 172.149 149.738 172.723 149.953C173.314 150.168 173.942 150.329 174.606 150.455C175.269 150.58 175.968 150.634 176.686 150.634C178.353 150.634 179.662 150.347 180.613 149.791C181.563 149.218 182.03 148.375 182.03 147.263C182.03 146.492 181.814 145.864 181.384 145.398C180.954 144.914 180.29 144.537 179.376 144.232C178.479 143.927 177.349 143.641 176.004 143.39C174.659 143.121 173.512 142.834 172.561 142.493C171.611 142.17 170.911 141.722 170.427 141.166C169.943 140.61 169.71 139.857 169.71 138.906C169.71 137.848 169.997 136.97 170.553 136.234C171.127 135.499 171.916 134.943 172.938 134.567C173.96 134.19 175.144 133.993 176.47 133.993C177.295 133.993 178.066 134.065 178.784 134.208C179.501 134.352 180.147 134.585 180.756 134.89C181.366 135.194 181.922 135.571 182.442 136.037L181.743 137.023L181.761 137.041Z" fill="white"/>
<path id="Vector_17" d="M9.84277 134.136H8.65924L0.5 151.656H1.98839L4.60652 145.882L5.07276 144.842L9.25101 135.661L13.4113 144.842L13.8776 145.882L16.4957 151.656H17.9482L9.84277 134.136Z" fill="white"/>
</g>
</g>
</g>
</svg>
