<?xml version="1.0" encoding="UTF-8"?>
<svg id="Capa_2" data-name="Capa 2" xmlns="http://www.w3.org/2000/svg" viewBox="0 0 249.17 245.3">
  <defs>
    <style>
      .cls-1 {
        fill: #fff;
        stroke-width: 0px;
      }
    </style>
  </defs>
  <g id="Capa_1-2" data-name="Capa 1">
    <g>
      <path class="cls-1" d="M7.68,160.26c.86.4,1.8.4,2.82,0,.96-.37,1.65-1,2.06-1.9.42-.9.39-1.96-.08-3.18l-1.81-4.69-10.67,4.13.87,2.24,3.87-1.5,1.02,2.63c.43,1.1,1.07,1.86,1.94,2.25ZM9.66,153.48l.88,2.27c.21.54.23,1.01.07,1.41s-.49.7-.98.89c-.5.19-.95.19-1.34,0s-.71-.56-.92-1.12l-.87-2.24,3.16-1.22Z"/>
      <path class="cls-1" d="M13.79,170.19l.02.04,1.7-.87c-.02-.12-.07-.29-.18-.49-.21-.42-.49-.71-.84-.88-.34-.17-.79-.26-1.33-.27l-.02-.04,1.17-.6-.95-1.87-7.31,3.73.99,1.94,3.56-1.82c.75-.38,1.4-.46,1.96-.24.55.22.97.67,1.23,1.36Z"/>
      <path class="cls-1" d="M20.38,177.26c-.68-1.06-1.58-1.71-2.71-1.94-1.13-.23-2.21-.01-3.26.65-1.04.67-1.7,1.56-1.96,2.68s-.06,2.21.62,3.27c.68,1.06,1.58,1.71,2.71,1.94,1.13.23,2.21.01,3.26-.65,1.04-.67,1.7-1.56,1.96-2.68.27-1.12.06-2.21-.62-3.27ZM19.2,179.83c-.22.57-.67,1.08-1.35,1.51-.68.44-1.33.63-1.94.58-.61-.05-1.09-.35-1.44-.9-.36-.56-.43-1.12-.21-1.69.21-.57.66-1.07,1.35-1.5.69-.44,1.34-.64,1.94-.6.6.04,1.08.35,1.44.9.35.55.42,1.11.2,1.68Z"/>
      <path class="cls-1" d="M31.79,187.81l-3.29,2.65-.03-.04c.3-.92.13-1.77-.51-2.57-.64-.8-1.48-1.2-2.52-1.2-1.04,0-2.06.39-3.05,1.2-1.03.83-1.65,1.74-1.86,2.73s.01,1.89.66,2.69c.69.85,1.54,1.21,2.56,1.08l.02.02-.83.67,1.32,1.63,8.9-7.19-1.37-1.69ZM26.07,192.49c-.6.48-1.17.73-1.72.74-.55.01-1.03-.23-1.43-.73-.35-.43-.45-.9-.3-1.41.15-.51.54-1.02,1.16-1.52.61-.49,1.19-.76,1.75-.81.56-.05,1.02.15,1.39.6.8.99.52,2.03-.85,3.13Z"/>
      <path class="cls-1" d="M35.02,203.02c-.39.39-.81.61-1.27.64-.45.03-.86-.13-1.21-.48-.64-.64-.61-1.31.08-2.01l3.6-3.62-1.53-1.52-3.86,3.88c-.64.64-.97,1.33-.99,2.06-.02.73.29,1.41.92,2.04.39.39.78.64,1.17.76.39.12.83.14,1.33.06l.03.03-.68.68,1.49,1.48,5.79-5.82-1.54-1.53-3.34,3.36Z"/>
      <path class="cls-1" d="M47.46,207.38c-.96-.77-1.99-1.07-3.09-.9-1.1.17-2.04.74-2.82,1.72s-1.13,2.02-1.04,3.14.62,2.08,1.61,2.87c.83.67,1.69.98,2.58.93.89-.05,1.64-.4,2.27-1.06l-1.64-1.31c-.7.63-1.42.65-2.16.06-.5-.4-.73-.89-.7-1.45.03-.57.3-1.17.8-1.79.51-.63,1.04-1.02,1.59-1.17s1.08-.02,1.58.38c.31.25.49.55.55.9.06.35,0,.69-.17,1.03l1.66,1.33c.46-.81.6-1.63.44-2.46-.17-.83-.66-1.57-1.46-2.22Z"/>
      <path class="cls-1" d="M56.87,211.4l-1.41,2.14-.95-.62-.79,1.2.95.62-2.65,4.02c-.39.59-.49,1.13-.3,1.62.19.49.55.91,1.07,1.25.48.32.87.56,1.15.72l.88-1.34-.54-.34c-.45-.3-.53-.68-.23-1.13l2.39-3.63,1.18.77.79-1.2-1.18-.77,1.41-2.14-1.78-1.17Z"/>
      <path class="cls-1" d="M74.23,228.51l-.59-2.42c.77-.04,1.39-.18,1.87-.42.48-.24.85-.66,1.12-1.26.32-.71.32-1.4,0-2.07-.31-.67-.87-1.18-1.67-1.54-.8-.36-1.55-.42-2.26-.18-.71.23-1.21.7-1.52,1.39-.33.73-.36,1.58-.09,2.55-1.89.09-3.12.79-3.7,2.08-.38.86-.39,1.69-.03,2.5.36.81,1.1,1.46,2.21,1.96,1.03.46,2.09.57,3.18.33l.23.93,2.43,1.08-.7-2.87c.99-.68,1.8-1.61,2.44-2.79l-1.77-.79c-.32.56-.71,1.06-1.17,1.51ZM70.39,229.5c-.41-.18-.7-.46-.86-.83-.17-.37-.16-.75.01-1.14.31-.7.98-1.12,1.99-1.25l.8,3.35c-.67.19-1.32.15-1.94-.13ZM73.09,222.89c.11-.24.28-.41.5-.5.23-.09.46-.08.69.02.22.1.38.26.47.49s.08.46-.03.71c-.25.56-.74.88-1.48.97-.29-.71-.34-1.27-.16-1.68Z"/>
      <path class="cls-1" d="M93.94,230.35c.72-.61,1.58-.8,2.59-.56.69.16,1.2.46,1.55.9s.52.95.53,1.54l2.21.52c.08-1.18-.21-2.2-.87-3.06-.66-.87-1.67-1.46-3.03-1.78-1.45-.34-2.75-.2-3.88.44-1.48.84-2.44,2.21-2.89,4.12-.39,1.68-.24,3.18.48,4.48.72,1.31,1.9,2.16,3.53,2.54,1.4.33,2.58,0,3.54-.99h.03s-.27,1.52-.27,1.52l1.7.4,1.39-5.92-4.69-1.1-.41,1.75,2.68.63v.06c-.17.65-.58,1.17-1.24,1.56s-1.41.48-2.24.29c-.95-.22-1.61-.77-2.01-1.64s-.45-1.88-.18-3.03c.27-1.16.77-2.05,1.49-2.66Z"/>
      <path class="cls-1" d="M110.02,233.94c-.33.19-.66.51-.97.95h-.05s.16-1.31.16-1.31l-2.08-.25-1,8.15,2.16.26.49-3.97c.1-.84.4-1.42.89-1.76.49-.34,1.1-.42,1.82-.26h.05s.23-1.88.23-1.88c-.11-.06-.28-.1-.5-.13-.47-.06-.87,0-1.2.2Z"/>
      <path class="cls-1" d="M123.97,237.37c.06-2.01-1.06-3.06-3.36-3.13-1.13-.03-2,.2-2.61.69s-.95,1.13-1,1.91l1.94.06c.09-.77.63-1.13,1.62-1.1.45.01.79.11,1.02.29.23.18.34.42.33.72,0,.29-.15.48-.43.59-.28.1-.81.2-1.58.28-1.05.12-1.87.36-2.46.74-.59.37-.89.97-.92,1.81-.02.8.22,1.43.73,1.88.51.45,1.2.69,2.06.72.65.02,1.16-.06,1.53-.24.37-.18.67-.44.92-.79h.03c.05.47.13.78.23.92l2.1.06v-.08c-.19-.14-.27-.53-.25-1.14l.12-4.17ZM121.85,239.81c-.01.43-.2.79-.55,1.09s-.83.44-1.43.42c-.85-.03-1.27-.38-1.25-1.08.01-.36.15-.63.41-.8.26-.17.7-.31,1.33-.43.78-.16,1.29-.3,1.53-.43l-.04,1.23Z"/>
      <path class="cls-1" d="M137.24,234.87c-.71-.75-1.6-1.08-2.68-1-1,.08-1.77.55-2.31,1.43h-.05s-.08-1.02-.08-1.02l-2.09.16.83,10.86,2.17-.17-.28-3.61h.03c.57.74,1.39,1.06,2.45.98,1.06-.08,1.89-.54,2.48-1.37.59-.83.83-1.91.73-3.22-.1-1.29-.5-2.3-1.21-3.05ZM135.91,239.99c-.29.46-.71.71-1.27.75-.64.05-1.14-.13-1.52-.55-.38-.42-.59-1-.65-1.75-.06-.79.04-1.43.32-1.94s.73-.79,1.38-.84c.64-.05,1.13.15,1.47.59.34.45.55,1.08.61,1.9.06.77-.06,1.38-.35,1.84Z"/>
      <path class="cls-1" d="M150.43,232.43c-.62-.46-1.34-.62-2.17-.46-.53.1-.96.29-1.29.56-.32.27-.59.66-.82,1.16h-.05s-.8-4.22-.8-4.22l-2.14.41,2.13,11.24,2.14-.4-.87-4.58c-.1-.54-.03-1.02.21-1.42.24-.4.6-.65,1.07-.74.44-.08.81-.01,1.11.21.3.23.49.56.57,1l.94,4.95,2.14-.4-1-5.27c-.17-.89-.56-1.57-1.18-2.03Z"/>
      <rect class="cls-1" x="158.02" y="229.71" width="2.18" height="8.21" transform="translate(-57.66 52.16) rotate(-15.8)"/>
      <rect class="cls-1" x="156.28" y="226.72" width="2.18" height="1.95" transform="translate(-56.07 51.48) rotate(-15.81)"/>
      <path class="cls-1" d="M171.81,230.79c.19.92-.16,1.55-1.05,1.89-.6.23-1.13.18-1.61-.13-.47-.32-.85-.85-1.14-1.6-.29-.76-.35-1.41-.2-1.96s.53-.94,1.13-1.17c.37-.14.72-.15,1.05-.02.33.12.6.35.8.67l1.99-.76c-.47-.8-1.1-1.35-1.9-1.62-.8-.28-1.69-.23-2.65.14-1.15.44-1.92,1.17-2.34,2.21-.41,1.04-.4,2.14.05,3.3.44,1.17,1.17,2,2.18,2.49,1.01.49,2.11.52,3.29.07,1-.38,1.7-.96,2.11-1.75.41-.79.49-1.62.23-2.49l-1.96.75Z"/>
      <path class="cls-1" d="M189.92,213.82c-1.35-.47-2.67-.31-3.97.47l-3.83,2.29,5.88,9.81,3.67-2.2c1.18-.71,1.96-1.6,2.34-2.69.52-1.5.27-3.1-.75-4.79-.88-1.46-1.99-2.43-3.34-2.9ZM192,220.59c-.1.77-.6,1.43-1.5,1.97l-1.54.92-3.83-6.4,1.59-.95c.82-.49,1.63-.57,2.43-.23s1.49,1.01,2.09,2.02c.6,1.01.86,1.9.76,2.67Z"/>
      <path class="cls-1" d="M204.47,212.41c.21.69,0,1.28-.64,1.76-.48.37-.97.52-1.47.45-.5-.07-.98-.33-1.44-.8l4.72-3.63c-.92-1.19-1.93-1.93-3.03-2.21s-2.17-.03-3.19.76c-.94.72-1.46,1.64-1.55,2.76s.23,2.16.98,3.13c.77,1.01,1.71,1.6,2.81,1.79,1.1.18,2.17-.13,3.22-.93.8-.62,1.31-1.33,1.51-2.13s.13-1.56-.21-2.26l-1.7,1.31ZM200.46,210.07c.39-.3.81-.42,1.26-.36s.85.29,1.19.69l-2.89,2.23c-.55-1.06-.4-1.91.43-2.56Z"/>
      <path class="cls-1" d="M215.14,201.68c-.28-.12-.54-.18-.78-.19-.23,0-.5.04-.8.14-.3.1-.55.21-.75.32-.2.11-.45.25-.75.43-.1.07-.24.16-.41.27-.17.11-.31.2-.41.26s-.23.13-.37.22c-.14.08-.26.14-.34.17-.09.03-.18.06-.29.08-.11.02-.2.01-.28-.02-.08-.03-.16-.08-.22-.15-.2-.21-.26-.46-.19-.75.07-.29.27-.58.58-.88.7-.67,1.36-.74,1.97-.22l1.43-1.36c-.64-.55-1.35-.8-2.12-.73s-1.54.46-2.3,1.19c-.71.68-1.14,1.39-1.28,2.15-.14.75.08,1.44.67,2.06.29.31.6.52.92.63.32.11.65.13,1,.04s.65-.19.92-.32c.27-.13.59-.32.98-.56.08-.04.21-.13.39-.25.18-.12.32-.21.4-.26s.2-.11.35-.2c.15-.09.27-.14.35-.16.08-.02.18-.03.29-.04.11-.01.21,0,.3.04s.17.09.24.17c.2.21.26.46.19.77-.07.3-.28.62-.63.95-.77.73-1.51.81-2.24.25l-1.46,1.39c.66.6,1.41.87,2.25.79.83-.08,1.68-.53,2.53-1.33.75-.71,1.19-1.46,1.32-2.24s-.08-1.47-.64-2.05c-.26-.27-.53-.47-.81-.59Z"/>
      <rect class="cls-1" x="218.54" y="191.7" width="2.18" height="8.21" transform="translate(-72.64 229.8) rotate(-48.35)"/>
      <rect class="cls-1" x="213.78" y="190.61" width="2.18" height="1.95" transform="translate(-71.08 224.8) rotate(-48.35)"/>
      <path class="cls-1" d="M231.82,186.05l-6.09-4.52-1.25,1.68.69.51-.02.03c-.89-.01-1.64.38-2.23,1.18-.62.84-.84,1.74-.65,2.71s.78,1.81,1.75,2.54c.95.71,1.93.98,2.93.83s1.79-.62,2.37-1.4c.51-.69.68-1.46.51-2.29l.03-.04.72.53c.92.68,1.01,1.51.29,2.49-.53.71-1.1.97-1.71.78l-1.29,1.74c.72.39,1.46.45,2.22.18.76-.27,1.47-.85,2.13-1.74.78-1.05,1.12-2.03,1.02-2.93-.09-.88-.57-1.64-1.42-2.27ZM228.16,188.28c-.34.45-.76.7-1.28.74-.51.04-1.05-.15-1.6-.56-.55-.41-.88-.87-1.01-1.38-.12-.51-.02-.99.31-1.44.38-.5.83-.77,1.37-.79.54-.02,1.07.16,1.58.54.52.39.86.83,1,1.34s.02,1.02-.37,1.54Z"/>
      <path class="cls-1" d="M232.98,171.03c-.76.16-1.35.61-1.77,1.34-.53.91-.56,1.84-.07,2.78l-.02.04-.97-.56-1.07,1.84,7.09,4.14,1.1-1.88-4.02-2.35c-.48-.28-.79-.64-.94-1.09s-.1-.88.15-1.29c.23-.39.52-.62.89-.7.37-.08.74,0,1.13.22l4.35,2.54,1.1-1.88-4.63-2.7c-.78-.46-1.55-.6-2.31-.44Z"/>
      <path class="cls-1" d="M243.92,160.12l-.87,1.96c.51.51.6,1.13.27,1.86-.25.56-.61.92-1.08,1.1s-1.02.17-1.65-.02l2.43-5.43c-1.37-.61-2.61-.78-3.72-.5-1.11.28-1.92,1.01-2.45,2.18-.48,1.08-.5,2.14-.05,3.17.45,1.03,1.23,1.79,2.35,2.29,1.16.52,2.27.6,3.32.24,1.05-.36,1.85-1.14,2.39-2.35.41-.92.52-1.79.32-2.59-.2-.8-.62-1.43-1.26-1.89ZM238.4,161.92c.2-.45.51-.75.94-.91.43-.16.89-.15,1.38.04l-1.49,3.33c-.98-.67-1.26-1.49-.83-2.46Z"/>
      <path class="cls-1" d="M245.38,151.57c-.8-.27-1.31-.68-1.55-1.23-.23-.55-.2-1.16.11-1.84l.02-.05-1.81-.6c-.08.1-.15.25-.22.47-.15.45-.16.85-.04,1.22s.37.75.74,1.14v.05s-1.26-.42-1.26-.42l-.67,1.99,7.78,2.61.69-2.06-3.79-1.27Z"/>
      <path class="cls-1" d="M212.89,177.19c12.1-16.02,19.45-34.61,21.61-54.33.08-.74.16-1.48.22-2.22.04-.47.09-.93.12-1.4.09-1.21.16-2.42.22-3.64.02-.34.03-.69.04-1.03.05-1.32.08-2.64.08-3.97C235.18,49.62,185.57,0,124.58,0S13.98,49.62,13.98,110.6c0,1.38.03,2.75.08,4.12.01.29.02.58.03.87.06,1.31.14,2.61.24,3.91.02.3.05.59.08.88.1,1.11.21,2.21.34,3.3.04.3.07.6.1.89.15,1.17.32,2.33.5,3.49.08.51.17,1.02.25,1.53.15.84.3,1.67.47,2.5.18.89.37,1.78.56,2.67.1.43.19.86.29,1.29,8.79,37.41,36.6,68.05,74.07,79.93.45.14.91.29,1.36.43.43.13.84.27,1.27.4l.12.3v-.27c.34.1.68.18,1.02.27.79.22,1.58.44,2.38.64.18.05.36.1.54.15l.43.11h0c8.47,2.07,17.32,3.19,26.43,3.19,10.77,0,21.18-1.55,31.03-4.44v.02s.82-.25.82-.25c.25-.07.49-.16.73-.24.91-.28,1.81-.57,2.7-.87.64-.21,1.27-.44,1.9-.67.58-.21,1.15-.42,1.73-.64.65-.25,1.3-.49,1.95-.75.86-.34,1.72-.7,2.57-1.07.47-.2.94-.41,1.41-.62,1.01-.45,2.01-.91,3-1.39.27-.13.54-.27.81-.4.94-.46,1.88-.94,2.8-1.43.27-.14.54-.28.81-.43,1.09-.59,2.17-1.19,3.24-1.82.23-.13.46-.27.69-.41,1.07-.63,2.13-1.28,3.17-1.95.06-.04.12-.07.18-.11,1.05-.67,2.07-1.36,3.1-2.07.3-.21.6-.41.89-.62.92-.65,1.84-1.31,2.74-1.99.41-.31.81-.62,1.22-.94.52-.4,1.04-.81,1.55-1.22.98-.79,1.95-1.59,2.91-2.41.15-.13.3-.25.45-.38,5.86-5.07,11.21-10.74,15.9-16.94ZM97.52,216.82c-.53-.14-1.06-.28-1.59-.42-.47-.13-.93-.25-1.4-.38-.26-.07-.51-.15-.77-.23v-2.07c-.03-6.35-2.08-11.13-4.27-16.26-.72-1.69-1.47-3.43-2.17-5.3-.92-2.46-1.91-6.21-2.74-10.42,6.63,3.88,13.06,7.44,14.84,8.42.07,1.34.13,2.77.17,4.25.19,6.98-.03,16.46-2.07,22.42ZM155.87,215.64c-2.31.69-4.65,1.31-7.02,1.85-2.58-10.03-2.25-24.3-1.86-31.44.04-.76.08-1.4.12-1.94.06-.95.12-1.67.15-2.08-5.97,4.9-12.94,10.22-14.92,10.7-2,.49-5.37.8-8.56.8s-6.19-.31-7.5-1.04c-1.19-.67-8.71-5.94-16.76-12.18.12,1.07.48,4.58.73,9.15l-.09-.05c-1.39-.77-8.71-4.81-16.01-9.1l-.95-.56.2,1.08c.88,4.7,1.97,8.95,2.99,11.67.71,1.89,1.46,3.64,2.21,5.4,1.88,4.39,3.66,8.57,4.07,13.71-1.85-4.28-6.61-14.31-12.14-17.96-.65-.43-2.9-3-4.67-18.15l-.03-.24-.2-.13c-5.33-3.37-7.09-4.88-7.63-5.55-2.89-3.61-.27-12.31.04-13.29l.1-.33-.26-.21c-5.06-4.1-13.94-11.61-15.14-13.81-1.42-2.6.09-7.29.27-7.81l.09-.27-.18-.21c-2.21-2.62-6.07-7.85-6.46-10.83-.39-2.92,2.55-6.97,4.35-8.9l.16-.17-.03-.23c-.12-.9-2.86-22.19-1.84-28.03,1.11-6.37,18.02-45.92,22.42-51.25,4.54-5.51,27.77-10.5,37.55-12.39,9.25-1.78,25.81,1.68,31.25,2.81l.28.06c.43.09.76.16.98.2,2.51.48,5.33,3.6,5.64,3.96l.28.32.36-.23c.4-.25,2.51-1.51,4.87-1.33,2.74.22,29.99,7.9,33.78,13.96,1.05,1.68,2.65,3.79,4.52,6.25,5.18,6.81,11.62,15.29,11.16,21.05-.63,7.87-5.93,54.79-5.98,55.23-1.23,7.34-10.22,23.09-16.17,33.52-2.26,3.97-4.05,7.11-4.64,8.46-.71,1.64-1.1,3.66-1.52,5.81-.77,4.01-1.65,8.56-4.96,11.06-1.76,1.32-3.28,2.34-4.81,3.2l-.16.09-.06.17c-.13.35-.2.48-.23.53-1.6,2.46-5.91,20.63-7.77,28.67ZM177.62,206.48c-.21.11-.41.23-.62.35-1,.55-2.01,1.08-3.03,1.59-.46.24-.93.47-1.4.7-.68.33-1.36.65-2.05.97-.82.38-1.64.75-2.46,1.11-.49.21-.98.42-1.47.63-.9.38-1.82.74-2.73,1.09-.59.23-1.19.46-1.79.68-.64.23-1.28.46-1.93.68-.63.22-1.26.42-1.89.63-.43.14-.85.28-1.28.41,3.66-15.83,6.46-26.19,7.51-27.8.08-.13.17-.31.27-.56,1.51-.87,3.03-1.88,4.76-3.18,3.62-2.73,4.54-7.48,5.34-11.67.4-2.09.78-4.06,1.45-5.6.57-1.31,2.35-4.42,4.6-8.37,5.98-10.49,15.03-26.33,16.29-33.87.05-.47,5.36-47.4,5.99-55.29.49-6.14-6.08-14.79-11.38-21.77-1.83-2.41-3.42-4.5-4.44-6.14-4.14-6.63-31.62-14.19-34.55-14.42-2.23-.17-4.26.79-5.12,1.27-.93-1-3.46-3.5-5.92-3.97-.22-.04-.55-.11-.97-.2l-.28-.06c-5.49-1.15-22.2-4.63-31.65-2.82-9.88,1.91-33.38,6.97-38.13,12.73-4.44,5.39-21.52,45.29-22.63,51.72-1,5.73,1.48,25.59,1.8,28.1-.97,1.07-4.95,5.76-4.45,9.54.49,3.7,5.37,9.76,6.51,11.13-.43,1.36-1.58,5.64-.11,8.34,1.48,2.72,12.32,11.62,15.12,13.9-.68,2.26-2.75,10.16.23,13.88.85,1.06,3.36,2.91,7.67,5.65.75,6.3,2.38,16.84,5.09,18.63,6.7,4.43,12.52,19.3,12.57,19.45l.65,1.68c-.33-.1-.65-.19-.98-.29-.31-.09-.61-.2-.92-.29-36.38-11.62-64.56-41.75-73.4-79.27-.1-.41-.19-.82-.28-1.24-.21-.94-.41-1.88-.59-2.82-.15-.77-.3-1.54-.43-2.32-.09-.51-.17-1.02-.25-1.53-.18-1.14-.35-2.28-.49-3.43-.04-.31-.07-.63-.11-.94-.13-1.07-.24-2.14-.33-3.22-.03-.29-.05-.58-.08-.86-.1-1.28-.18-2.56-.24-3.85-.01-.29-.02-.58-.03-.88-.05-1.35-.08-2.7-.08-4.06C14.98,50.17,64.15,1,124.58,1s109.6,49.17,109.6,109.6c0,1.38-.03,2.75-.09,4.12,0,.19-.01.39-.02.58-1.67,38.26-23.63,72.88-56.45,91.18Z"/>
      <path class="cls-1" d="M122.98,161.13c-.09,0-.17,0-.25,0-2.31,0-3.43.56-4.71,1.21-.97.49-1.97.99-3.58,1.3,1.27.48,5.24,1.9,8.55,1.9s6.57-1.37,7.67-1.87c-1.53-.24-2.47-.76-3.37-1.27-1.12-.63-2.18-1.22-4.3-1.26Z"/>
      <path class="cls-1" d="M101.25,135.73c.69-.49,1.29-.95,1.85-1.39h.01c0-.11.08-.18.17-.18.01,0,.02.01.03.01l.02-.02c.93-.75,1.73-1.49,2.45-2.25-.03-.03-.05-.07-.05-.12,0-.1.08-.18.18-.18.04,0,.08.02.11.05.2-.21.39-.43.58-.65,1.43-1.67,2.65-3.6,3.87-6.13,1.11-2.3,1.72-4.78,1.81-7.37.09-2.58-.33-5.27-1.28-7.99-1.85-5.34-7.4-7.66-9.71-8.4-.68-.22-1.38-.42-2.1-.59-.68,1.61-1.34,3.19-1.97,4.73,3.49.74,5.79,2.6,5.81,2.62l.09.08-.29.35-.1-.08s-2.3-1.85-5.69-2.54l-.62,1.51c2.74.28,5.31,1.32,7.62,3.11.54.41,1.02.83,1.43,1.23,1.23,1.18,1.88,2.16,1.89,2.17l.53.8-.72-.64s-1.16-1.03-2.89-2.16c0,.13.01.26.01.39,0,3.23-2.12,6.06-5.1,7.05,2.3-.12,3.28-.34,3.29-.35l.12-.03.08.35-.12.03c-.18.04-1.86.38-5.7.43h-.33c-.26,0-.52,0-.77,0-1.75-.05-3.15-.27-4.09-.46-2.69,7.03-4.75,12.99-6.27,18.22,6.18,1.79,11.94,1.22,15.83-1.58ZM108.77,123.31c.15,0,.28.12.28.28s-.12.28-.28.28-.28-.12-.28-.28.12-.28.28-.28ZM106.73,128.59c-.15,0-.28-.12-.28-.28s.12-.28.28-.28.28.12.28.28-.12.28-.28.28ZM107.96,126.78c.15,0,.28.12.28.28s-.12.28-.28.28-.28-.12-.28-.28.12-.28.28-.28ZM106.95,125.5c.15,0,.28.12.28.28s-.12.28-.28.28-.28-.12-.28-.28.12-.28.28-.28ZM106.33,122.91c.15,0,.28.12.28.28s-.12.28-.28.28-.28-.12-.28-.28.12-.28.28-.28ZM106.3,124.09c.15,0,.28.12.28.28s-.12.28-.28.28-.28-.12-.28-.28.12-.28.28-.28ZM104.29,127.63c.15,0,.28.12.28.28s-.12.28-.28.28-.28-.12-.28-.28.12-.28.28-.28ZM104.26,128.81c.15,0,.28.12.28.28s-.12.28-.28.28-.28-.12-.28-.28.12-.28.28-.28ZM102.53,130.26c0,.15-.12.28-.28.28s-.28-.12-.28-.28.12-.28.28-.28.28.12.28.28ZM101.92,124.07c.15,0,.28.12.28.28s-.12.28-.28.28-.28-.12-.28-.28.12-.28.28-.28ZM101.11,127.53c.15,0,.28.12.28.28s-.12.28-.28.28-.28-.12-.28-.28.12-.28.28-.28ZM100.85,133.64c.15,0,.28.12.28.28s-.12.28-.28.28-.28-.12-.28-.28.12-.28.28-.28ZM100.81,134.82c.15,0,.28.12.28.28s-.12.28-.28.28-.28-.12-.28-.28.12-.28.28-.28ZM99.48,123.66c.15,0,.28.12.28.28s-.12.28-.28.28-.28-.12-.28-.28.12-.28.28-.28ZM99.45,124.84c.15,0,.28.12.28.28s-.12.28-.28.28-.28-.12-.28-.28.12-.28.28-.28ZM97.22,128.55c.15,0,.28.12.28.28s-.12.28-.28.28-.28-.12-.28-.28.12-.28.28-.28ZM96.69,132.28c0,.15-.12.28-.28.28s-.28-.12-.28-.28.12-.28.28-.28.28.12.28.28ZM96.31,124.8c.15,0,.28.12.28.28s-.12.28-.28.28-.28-.12-.28-.28.12-.28.28-.28ZM94.78,128.14c.15,0,.28.12.28.28s-.12.28-.28.28-.28-.12-.28-.28.12-.28.28-.28ZM94.75,129.32c.15,0,.28.12.28.28s-.12.28-.28.28-.28-.12-.28-.28.12-.28.28-.28ZM92.64,132.55c.15,0,.28.12.28.28s-.12.28-.28.28-.28-.12-.28-.28.12-.28.28-.28ZM86.8,135.13c-.15,0-.28-.12-.28-.28s.12-.28.28-.28.28.12.28.28-.12.28-.28.28ZM87.61,131.66c-.15,0-.28-.12-.28-.28s.12-.28.28-.28.28.12.28.28-.12.28-.28.28ZM90.47,127.38c-.15,0-.28-.12-.28-.28s.12-.28.28-.28.28.12.28.28-.12.28-.28.28ZM91.28,123.92c-.15,0-.28-.12-.28-.28s.12-.28.28-.28.28.12.28.28-.12.28-.28.28Z"/>
      <path class="cls-1" d="M104.83,101.1c3.6,1.89,5.72,4.72,6.85,6.7v-2.34l.08-.03s5.03-1.8,11.2-1.8,10.93,1.62,10.98,1.63l.08.03.16,2.29c1.49-2.59,4.77-6.72,10.91-8.12,7.54-1.72,14.64-1.48,21.12.69,1.74.58,3.33,1.34,4.7,2.23.96.62,1.81,1.31,2.54,2.05-1.04-12.87-5.77-26.29-8.52-33.19-3.91-9.82-7.99-17.01-9.35-17.57-1.89-.77-5.18-.24-7.83.2-1.97.32-3.22.5-3.82.31-.11-.04-.21-.08-.27-.15-.35-.35-.45-1.52-.44-2.89,0-1.18.1-2.5.19-3.58.05-.54.1-1.02.14-1.39l-2.87,5.72h-.08s-10.94-.49-10.94-.49c-.35.4-2.97,3.43-6.6,8.22-6.3,8.31-15.15,21.2-21.57,35.5,5.03.53,9.24,1.48,9.29,1.49l.1.02v3.91h-.14s-.08.08-.08.08c-.06-.05-.85-.54-9.78-2.06-.26-.04-.54-.08-.83-.12l-.39.92c.35.07.69.15,1.04.22,1.54.35,2.91.88,4.11,1.5ZM134.16,96.64l.1-.02c.15-.03,15.39-3.44,22.85-.91,7.44,2.53,11.52,4.71,11.56,4.73l-.11.22s-3.94-1.85-10.86-2.5c-3.82-.36-10.14-.16-13.54.41-8.93,1.52-9.72,2-9.78,2.05l-.06-.07h-.16v-3.92Z"/>
      <path class="cls-1" d="M92.18,117.83l-.36.93c.66.14,1.59.29,2.72.38-.86-.29-1.66-.72-2.36-1.3Z"/>
      <path class="cls-1" d="M103.26,134.28s0,0,0,0c0,0,0,0,0,0,0,0,0,.01,0,.02h0s.02-.03.04-.04h0s0,0-.01,0c0,0,0,0,0,0Z"/>
      <path class="cls-1" d="M157.98,99.49c-.78-.03-1.54-.04-2.27-.04-4.44,0-8.04.49-11.2,1.51-2.3.75-7.86,3.07-9.71,8.41-1.88,5.44-1.7,10.75.53,15.36,2.64,5.46,5.28,8.02,9.22,10.85,4.25,3.05,10.57,3.46,17.33,1.1,3.35-1.17,6.38-3.36,8.76-6.35,1.2-6.4,2.04-11.17,2.56-14.6.43-2.8.56-5.96.38-9.38-.36-.63-.75-1.12-1.15-1.46-2.49-2.13-8.62-5.21-14.46-5.41ZM136.27,124.34c-.15,0-.28-.12-.28-.28s.12-.28.28-.28.28.12.28.28-.12.28-.28.28ZM136.3,123.16c-.15,0-.28-.12-.28-.28s.12-.28.28-.28.28.12.28.28-.12.28-.28.28ZM142.79,107.73c.17-.13,4.13-3.26,9.44-2.88,5.36.39,9.37,3.54,9.41,3.58l.1.08-.28.35-.1-.08s-3.94-3.1-9.15-3.48c-5.21-.37-9.08,2.75-9.12,2.78l-.1.08-.29-.35.1-.08ZM137.93,127.03c-.15,0-.28-.12-.28-.28s.12-.28.28-.28.28.12.28.28-.12.28-.28.28ZM138.74,123.57c-.15,0-.28-.12-.28-.28s.12-.28.28-.28.28.12.28.28-.12.28-.28.28ZM142.21,129.52c-.15,0-.28-.12-.28-.28s.12-.28.28-.28.28.12.28.28-.12.28-.28.28ZM142.24,128.34c-.15,0-.28-.12-.28-.28s.12-.28.28-.28.28.12.28.28-.12.28-.28.28ZM143.49,124.73c0-.15.12-.28.28-.28s.28.12.28.28-.12.28-.28.28-.28-.12-.28-.28ZM143.87,132.21c-.15,0-.28-.12-.28-.28s.12-.28.28-.28.28.12.28.28-.12.28-.28.28ZM144.69,128.75c-.15,0-.28-.12-.28-.28s.12-.28.28-.28.28.12.28.28-.12.28-.28.28ZM146.91,125.04c-.15,0-.28-.12-.28-.28s.12-.28.28-.28.28.12.28.28-.12.28-.28.28ZM146.94,123.86c-.15,0-.28-.12-.28-.28s.12-.28.28-.28.28.12.28.28-.12.28-.28.28ZM148.28,135.02c-.15,0-.28-.12-.28-.28s.12-.28.28-.28.28.12.28.28-.12.28-.28.28ZM148.31,133.84c-.15,0-.28-.12-.28-.28s.12-.28.28-.28.28.12.28.28-.12.28-.28.28ZM148.57,127.73c-.15,0-.28-.12-.28-.28s.12-.28.28-.28.28.12.28.28-.12.28-.28.28ZM149.11,123.99c0-.15.12-.28.28-.28s.28.12.28.28-.12.28-.28.28-.28-.12-.28-.28ZM149.43,129.91c0-.15.12-.28.28-.28s.28.12.28.28-.12.28-.28.28-.28-.12-.28-.28ZM149.94,137.71c-.15,0-.28-.12-.28-.28s.12-.28.28-.28.28.12.28.28-.12.28-.28.28ZM150.75,134.25c-.15,0-.28-.12-.28-.28s.12-.28.28-.28.28.12.28.28-.12.28-.28.28ZM151.72,129.01c-.15,0-.28-.12-.28-.28s.12-.28.28-.28.28.12.28.28-.12.28-.28.28ZM151.75,127.83c-.15,0-.28-.12-.28-.28s.12-.28.28-.28.28.12.28.28-.12.28-.28.28ZM153.38,131.7c-.15,0-.28-.12-.28-.28s.12-.28.28-.28.28.12.28.28-.12.28-.28.28ZM153.48,124.01c0-.15.12-.28.28-.28s.28.12.28.28-.12.28-.28.28-.28-.12-.28-.28ZM153.51,122.83c0-.15.12-.28.28-.28s.28.12.28.28-.12.28-.28.28-.28-.12-.28-.28ZM154.2,128.24c-.15,0-.28-.12-.28-.28s.12-.28.28-.28.28.12.28.28-.12.28-.28.28ZM154.41,125.7c-.15,0-.28-.12-.28-.28s.12-.28.28-.28.28.12.28.28-.12.28-.28.28ZM155.14,126.7c0-.15.12-.28.28-.28s.28.12.28.28-.12.28-.28.28-.28-.12-.28-.28ZM155.78,135.69c-.15,0-.28-.12-.28-.28s.12-.28.28-.28.28.12.28.28-.12.28-.28.28ZM156.23,132c-.15,0-.28-.12-.28-.28s.12-.28.28-.28.28.12.28.28-.12.28-.28.28ZM156.27,130.81c-.15,0-.28-.12-.28-.28s.12-.28.28-.28.28.12.28.28-.12.28-.28.28ZM155.96,123.24c0-.15.12-.28.28-.28s.28.12.28.28-.12.28-.28.28-.28-.12-.28-.28ZM157.9,134.68c-.15,0-.28-.12-.28-.28s.12-.28.28-.28.28.12.28.28-.12.28-.28.28ZM158.71,131.22c-.15,0-.28-.12-.28-.28s.12-.28.28-.28.28.12.28.28-.12.28-.28.28ZM159.22,129.68c-.15,0-.28-.12-.28-.28s.12-.28.28-.28.28.12.28.28-.12.28-.28.28ZM161.26,124.95c-.15,0-.28-.12-.28-.28s.12-.28.28-.28.28.12.28.28-.12.28-.28.28ZM163.74,132.66c-.15,0-.28-.12-.28-.28s.12-.28.28-.28.28.12.28.28-.12.28-.28.28ZM166.96,111.97s-.27,1.64-2.6,1.76c-2.05.1-2.52-.23-2.61-.35-.18-.15-2.61-2.07-5.67-3.47.19.66.28,1.34.28,2.04,0,3.25-2.1,6.06-5.08,7.05,2.55-.2,4.1-.73,4.18-.75l.12-.04.12.33-.12.04s-2.47.85-6.31.85c-.11,0-.22,0-.33,0-4.03-.05-5.69-.43-5.7-.43l-.12-.03.08-.34.12.02c.13.03,1.12.23,3.3.35-2.98-.99-5.1-3.82-5.1-7.05,0-.13,0-.26.01-.39-1.73,1.13-2.88,2.15-2.89,2.16l-.74.66.55-.82c.05-.07,1.19-1.76,3.32-3.4,2.46-1.89,5.18-2.95,8.09-3.15,1.65-.11,3.32.05,4.99.48,4.59,1.19,7.69,4.09,7.96,4.35.21.08,1.98.71,4-.01l.2-.07-.03.21Z"/>
      <path class="cls-1" d="M71.21,125.03c-.12-.87-.15-2.76-.08-5.6-2.94-3.3-7.55-8.13-8.4-8.13h-.02c-1.06.1-7.46,6.13-7.78,8.1-.31,1.93,5.8,16.47,7.51,17.88,1.6,1.32,9.88,5.47,11.62,6.33-1.2-6.4-2.07-12.79-2.59-16.62-.1-.76-.19-1.42-.27-1.96ZM68.63,130.83l.07.1-.3.19-.07-.1c-.44-.68-4.31-6.72-3.87-8.37.05-.19.16-.33.31-.41,1.13-.58,2.73-.83,3.38-.91-.65-.85-2.96-3.81-4.89-5.69-1.82.34-3.15,1.18-3.94,2.5-1.72,2.88-.36,7.14-.34,7.18l.04.12-.33.11-.04-.11s-.36-1.11-.5-2.59c-.12-1.36-.07-3.31.87-4.89.81-1.35,2.14-2.21,3.94-2.6-.69-.65-1.32-1.13-1.79-1.29l-.12-.04.11-.33.12.04c.5.17,1.2.69,2.08,1.52h.04s0,.05,0,.05c.68.65,1.46,1.49,2.36,2.53,1.54,1.79,2.84,3.51,2.85,3.53l.19.25-.31.03s-2.17.2-3.56.91c-.04.02-.1.06-.13.19-.35,1.33,2.93,6.71,3.83,8.08Z"/>
      <path class="cls-1" d="M105.92,131.72s-.05.02-.05.05c0,.02.02.02.03.03h0s-.03-.01-.03-.03c0-.03.02-.05.05-.05,0,0,0,0,0,0Z"/>
      <path class="cls-1" d="M194.68,119.27c-.31-1.89-7.41-7.87-8.46-7.97h-.02c-.85,0-5.47,4.84-8.4,8.14v.1c.08,2.44.08,4.14,0,5.01-.39,4.05-1.47,11.63-2.92,18.69l-.05.42c1.51-.63,11.18-4.68,12.8-6.02,1.87-1.54,7.34-16.59,7.06-18.37ZM184.16,122.25c.15.08.26.22.31.41.44,1.65-3.43,7.68-3.87,8.37l-.07.1-.3-.19.07-.1c.9-1.37,4.18-6.75,3.83-8.08-.03-.13-.09-.17-.13-.19-1.38-.71-3.54-.91-3.56-.91l-.32-.03.19-.25s1.29-1.72,2.85-3.53c.91-1.06,1.7-1.9,2.39-2.56v-.05s.05,0,.05,0c.86-.82,1.55-1.33,2.05-1.49l.12-.04.11.33-.12.04c-.46.15-1.08.63-1.76,1.26,1.79.39,3.12,1.25,3.93,2.59,1.78,2.99.42,7.32.36,7.51l-.04.12-.33-.11.04-.12s1.4-4.33-.32-7.22c-.79-1.32-2.11-2.15-3.92-2.49-1.94,1.88-4.27,4.86-4.93,5.72.64.08,2.25.34,3.38.91Z"/>
      <path class="cls-1" d="M170.17,132.91c-.14.14-.27.26-.38.35-.08.06-.17.15-.29.24-1.75,1.51-7.1,6.09-14.79,6.09-8.17,0-13.65-3.28-18.93-11.31-4.81-7.33-3.85-15.27-2.52-18.83v-1.85c-.76-.14-5.69-1-10.31-.87-4.63.13-9.74.54-10.55.61l-.07,1.7c1.13,2.46,3.09,11.18-2.3,19.37-5.27,8.03-10.76,11.31-18.93,11.31-2.04,0-4.1-.33-6.1-.99-1.46,5.19-2.39,9.69-2.87,13.78-.4,3.47-.48,7.55-.23,12.14l.34.37c.25.27.51.55.79.83l.05.05c.05.05.1.11.16.16.11.11.19.2.28.29.33.34.68.68,1.05,1.03l.21.2c.1.1.2.2.3.29l.2.19c.62.58,1.3,1.21,2.04,1.88l.27.24c.18.16.35.31.53.47.19.17.38.33.57.5.09.08.18.16.27.23l.58.5c.67.58,1.36,1.16,2.05,1.74l.49.41c.62.52,1.26,1.04,1.9,1.56l1.16.94c.97.78,1.99,1.59,3.12,2.48l1.09.85.11.09c8.12,6.3,15.73,11.64,16.92,12.31,2.58,1.45,11.91,1.19,15.87.22,1.61-.4,7.5-4.64,15.01-10.81.06-.05.17-.14.2-.16.02-.02.05-.04.07-.06.73-.6,1.47-1.21,2.2-1.83,0,0,0,0,0,0,1.49-1.25,2.96-2.51,4.38-3.75.05-.04.09-.08.14-.12.66-.58,1.32-1.16,1.96-1.73.1-.09.19-.17.29-.26.58-.52,1.16-1.03,1.71-1.53.22-.2.42-.39.64-.59.42-.39.85-.78,1.25-1.15.32-.3.62-.58.92-.87.28-.26.57-.53.83-.78.56-.54,1.1-1.05,1.6-1.55.85-4.38,1.71-8.76,2.55-13.07,1.5-7.64,2.91-14.87,4.13-21.33ZM135.07,130.76c.15,0,.28.12.28.28s-.12.28-.28.28-.28-.12-.28-.28.12-.28.28-.28ZM134.26,134.22c.15,0,.28.12.28.28s-.12.28-.28.28-.28-.12-.28-.28.12-.28.28-.28ZM132.63,130.35c.15,0,.28.12.28.28s-.12.28-.28.28-.28-.12-.28-.28.12-.28.28-.28ZM132.6,131.53c.15,0,.28.12.28.28s-.12.28-.28.28-.28-.12-.28-.28.12-.28.28-.28ZM128.67,144.23c.05-.02.46-.18,1.73-.02,1.14.15,2.16.34,2.1,1.08-.03.36-.17.87-.49,1.14-.13.11-.27.16-.42.16-.02,0-.04,0-.05,0-.49-.04-2.68-1.03-2.92-1.27-.02-.02-.04-.04-.05-.05-.17-.15-.37-.34-.33-.58.03-.18.17-.33.43-.46ZM116.28,132.46c.15,0,.28.12.28.28s-.12.28-.28.28-.28-.12-.28-.28.12-.28.28-.28ZM116.2,144.21c1.27-.16,1.68,0,1.72.01.27.14.42.29.44.46.03.24-.17.43-.31.56-.04.04-.06.05-.08.07-.24.24-2.43,1.23-2.91,1.27-.02,0-.04,0-.06,0-.15,0-.29-.05-.42-.16-.32-.27-.46-.78-.49-1.14-.06-.74.96-.94,2.1-1.08ZM113.8,124.75c.15,0,.28.12.28.28s-.12.28-.28.28-.28-.12-.28-.28.12-.28.28-.28ZM111.76,129.47c.15,0,.28.12.28.28s-.12.28-.28.28-.28-.12-.28-.28.12-.28.28-.28ZM111.25,131.02c.15,0,.28.12.28.28s-.12.28-.28.28-.28-.12-.28-.28.12-.28.28-.28ZM110.43,134.48c.15,0,.28.12.28.28s-.12.28-.28.28-.28-.12-.28-.28.12-.28.28-.28ZM108.8,130.61c.15,0,.28.12.28.28s-.12.28-.28.28-.28-.12-.28-.28.12-.28.28-.28ZM108.77,131.8c.15,0,.28.12.28.28s-.12.28-.28.28-.28-.12-.28-.28.12-.28.28-.28ZM108.32,135.49c.15,0,.28.12.28.28s-.12.28-.28.28-.28-.12-.28-.28.12-.28.28-.28ZM102.48,137.51c.15,0,.28.12.28.28s-.12.28-.28.28-.28-.12-.28-.28.12-.28.28-.28ZM148.22,160.69l-.04-.12.03.12c-.11.03-2.59.8-5.67,1.55,0,0-.12.03-.12.03l-.12.03s-1.11.21-1.67.34c-.24.19-1.65,1.31-3.28,2.61-.27.21-.63.54-1.09.95-2.51,2.26-7.72,6.95-13.28,6.95-6.52,0-14.12-6.96-15.35-8.33-1.19-1.33-3.67-2.37-3.7-2.38-.58-.15-1.92-.47-1.92-.47-2.23-.64-3.89-1.21-4.08-1.28l-.12-.04.11-.33.12.04c.32.11,1.97.67,4.14,1.29h.02c1.53-.61,6.37-2.56,8.76-3.76,2.63-1.33,6.17-2.83,7.72-2.98.76-.08,1.39.19,2.06.48.67.28,1.36.58,2.23.54.87-.04,1.42-.37,1.95-.69.53-.32,1.03-.62,1.76-.6,1.45.04,6.37,2.36,8.18,3.32,1.58.84,6.52,3.47,7.46,3.97h0c3.13-.76,5.67-1.54,5.77-1.58l.12-.04.11.33-.12.04Z"/>
    </g>
  </g>
</svg>