<svg width="158" height="177" viewBox="0 0 158 177" fill="none" xmlns="http://www.w3.org/2000/svg">
<g id="Capa 1">
<g id="Group">
<path id="Vector" d="M0.632812 0.486328V157.221H157.367V0.486328H0.632812ZM153.946 153.8H4.05398V3.90749H153.963V153.817L153.946 153.8Z" fill="white"/>
<path id="Vector_2" d="M118.197 23.1041C118.197 21.0133 118.646 19.4583 119.544 18.4907C120.443 17.5231 121.687 17.0393 123.38 17.0393C125.073 17.0393 126.318 17.5058 127.181 18.4216C128.063 19.3373 128.512 20.7542 128.512 22.6375V41.9896H130.516V23.1213C130.516 21.0479 130.965 19.5101 131.864 18.5252C132.762 17.5403 134.024 17.0738 135.734 17.0738C137.445 17.0738 138.654 17.5231 139.553 18.4561C140.434 19.3719 140.901 20.7887 140.901 22.6548V42.0069H142.905V22.603C142.905 20.2185 142.266 18.3524 141.022 17.0738C139.778 15.7779 138.015 15.1213 135.821 15.1213C134.179 15.1213 132.745 15.5187 131.605 16.2963C130.81 16.8319 130.171 17.5749 129.687 18.4734C129.22 17.5922 128.598 16.8665 127.803 16.3308C126.646 15.536 125.212 15.1213 123.518 15.1213C121.946 15.1213 120.598 15.4669 119.51 16.1581C119.009 16.4691 118.559 16.8665 118.179 17.333V15.225H116.175V42.0069H118.214V23.1386L118.197 23.1041Z" fill="white"/>
<path id="Vector_3" d="M136.028 50.3869C134.058 49.2638 131.847 48.6936 129.428 48.6936C127.009 48.6936 124.797 49.2638 122.845 50.3869C120.875 51.51 119.337 53.0824 118.214 55.0694C117.091 57.0565 116.538 59.2854 116.538 61.739C116.538 64.1925 117.091 66.4215 118.214 68.4085C119.337 70.3955 120.875 71.9679 122.845 73.091C124.814 74.2141 127.009 74.7843 129.428 74.7843C131.847 74.7843 134.058 74.2141 136.028 73.091C137.998 71.9679 139.553 70.3955 140.676 68.4085C141.799 66.4215 142.352 64.1925 142.352 61.739C142.352 59.2854 141.799 57.0565 140.676 55.0694C139.553 53.0824 138.015 51.51 136.028 50.3869Z" fill="white"/>
<path id="Vector_4" d="M124.693 85.5317C126.387 84.5814 128.287 84.0976 130.361 84.0976C133.384 84.0976 135.89 85.0479 137.86 86.9486L138.067 87.1559L139.19 85.9809L139 85.7909C137.929 84.7023 136.633 83.8557 135.13 83.3028C133.644 82.7498 132.019 82.4734 130.326 82.4734C127.924 82.4734 125.713 83.0263 123.76 84.1149C121.808 85.2034 120.253 86.7239 119.147 88.6419C118.041 90.5598 117.471 92.7196 117.471 95.0868C117.471 97.454 118.041 99.6138 119.147 101.532C120.253 103.45 121.808 104.97 123.76 106.059C125.713 107.147 127.907 107.7 130.326 107.7C132.037 107.7 133.661 107.406 135.147 106.854C136.633 106.283 137.929 105.437 138.983 104.348L139.173 104.158L138.05 102.983L137.842 103.19C135.873 105.108 133.35 106.076 130.343 106.076C128.27 106.076 126.352 105.592 124.676 104.642C122.983 103.692 121.652 102.361 120.667 100.685C119.7 99.0263 119.216 97.1429 119.216 95.1213C119.216 93.0997 119.7 91.2164 120.667 89.5576C121.635 87.8989 122.983 86.5684 124.676 85.6008L124.693 85.5317Z" fill="white"/>
<path id="Vector_5" d="M129.134 116.685C126.041 116.685 123.587 117.601 121.808 119.415C120.045 121.229 119.147 123.89 119.147 127.329V141.635H120.892V133.843H137.324V141.635H139.069V127.329C139.069 123.89 138.171 121.229 136.408 119.415C134.646 117.601 132.192 116.685 129.117 116.685H129.134ZM137.341 127.225V132.236H120.909V127.225C120.909 124.288 121.635 122.041 123.069 120.555C124.503 119.07 126.542 118.327 129.151 118.327C131.76 118.327 133.799 119.087 135.216 120.555C136.633 122.041 137.359 124.288 137.359 127.225H137.341Z" fill="white"/>
<path id="Vector_6" d="M17.7387 115.199L17.7905 116.236H17.8078C18.9654 131.337 31.4752 143.018 46.7322 143.018H67.311C82.5854 143.018 95.0951 131.337 96.2527 116.236H96.27L96.3219 115.216L96.3564 114.508H96.3391C96.4255 110.137 95.5098 105.851 93.6091 101.774L87.1124 87.8471L83.3111 79.7089C82.8618 78.724 82.3262 77.7737 81.756 76.8406C84.5033 75.3892 86.2484 72.5728 86.2484 69.3935C86.2484 64.7283 82.4471 60.927 77.7819 60.927C74.4126 60.927 71.3715 62.9832 70.0411 66.0069C61.9201 61.981 52.1059 61.981 43.9849 66.0069C42.6544 62.9832 39.6134 60.927 36.2614 60.927C31.5961 60.927 27.7948 64.7283 27.7948 69.3935C27.7948 72.5728 29.54 75.3892 32.2873 76.8406C31.7344 77.7564 31.1987 78.7067 30.7322 79.7089L27.7084 86.1883L27 87.7089L26.9309 87.8471L20.4341 101.774C18.5335 105.851 17.6177 110.137 17.7041 114.508H17.6868L17.7214 115.216L17.7387 115.199ZM67.311 141.29H46.7322C32.2873 141.29 20.4514 130.162 19.4838 115.838C20.1404 115.683 20.8143 115.545 21.4708 115.406C22.162 115.268 22.8359 115.113 23.527 114.975C24.3045 114.819 25.0994 114.681 25.8942 114.543C26.6026 114.422 27.3283 114.283 28.054 114.162C28.8488 114.024 29.6609 113.921 30.473 113.8C31.216 113.696 31.9417 113.575 32.6847 113.471C33.514 113.368 34.3434 113.264 35.1901 113.16C35.9331 113.074 36.676 112.97 37.419 112.901C38.283 112.815 39.1642 112.728 40.0281 112.659C40.7711 112.59 41.4968 112.521 42.2225 112.452C43.1555 112.383 44.1058 112.331 45.0562 112.262C45.7473 112.21 46.4212 112.158 47.1123 112.124C48.2009 112.072 49.2894 112.037 50.3953 111.985C50.9482 111.968 51.5011 111.933 52.054 111.916C53.7128 111.882 55.3715 111.847 57.0303 111.847C58.689 111.847 60.3478 111.864 62.0065 111.916C62.5594 111.916 63.1123 111.968 63.6653 111.985C64.7538 112.02 65.8596 112.054 66.9482 112.106C67.6393 112.141 68.3132 112.193 69.0043 112.245C69.9547 112.296 70.8877 112.365 71.838 112.435C72.581 112.486 73.3067 112.573 74.0324 112.642C74.9136 112.728 75.7776 112.797 76.6415 112.884C77.3845 112.97 78.1275 113.057 78.8704 113.143C79.6998 113.247 80.5465 113.333 81.3758 113.454C82.1188 113.558 82.8618 113.679 83.5875 113.782C84.3996 113.903 85.2117 114.007 86.0065 114.145C86.7322 114.266 87.4406 114.404 88.1663 114.525C88.9612 114.664 89.756 114.802 90.5335 114.957C91.2247 115.095 91.8985 115.234 92.5897 115.389C93.2635 115.527 93.9201 115.666 94.5767 115.821C93.6091 130.145 81.7733 141.273 67.311 141.273V141.29ZM32.3045 80.4C32.8747 79.1732 33.5313 77.9983 34.2398 76.9097C34.5508 76.4259 34.8791 75.9594 35.2074 75.5102C37.5572 72.3309 40.4946 69.7737 43.9676 67.9248C52.0195 63.5706 62.0411 63.5706 70.1102 67.9248C70.6113 68.184 71.0951 68.4778 71.5616 68.7715C72.391 69.2899 73.1858 69.86 73.9633 70.4648C74.9309 71.2251 75.864 72.0544 76.7106 72.9529C77.851 74.1624 78.905 75.4756 79.8208 76.927C80.5465 78.0501 81.2031 79.2251 81.7387 80.4173L85.0389 87.4842C84.8834 87.6397 84.7106 87.8125 84.5551 87.968C84.3478 88.1754 84.1404 88.3827 83.9158 88.5728C83.6739 88.7974 83.432 89.0048 83.1901 89.2121C82.9655 89.4022 82.7409 89.5922 82.5162 89.7823C82.2743 89.9896 82.0152 90.1797 81.756 90.387C81.5141 90.5771 81.2895 90.7499 81.0476 90.94C80.7884 91.13 80.5119 91.3201 80.2527 91.5102C80.0108 91.6829 79.7517 91.8557 79.5098 92.0285C79.2333 92.2013 78.9568 92.3741 78.6804 92.5469C78.4212 92.7024 78.162 92.8752 77.9028 93.0307C77.6264 93.2035 77.3326 93.359 77.0389 93.5145C76.7625 93.67 76.5033 93.8082 76.2268 93.9464C75.9331 94.102 75.6393 94.2402 75.3283 94.3784C75.0519 94.5166 74.7754 94.6549 74.499 94.7758C74.1879 94.914 73.8769 95.035 73.5659 95.1732C73.2894 95.2942 72.9957 95.4151 72.7193 95.5361C72.4082 95.657 72.0799 95.778 71.7689 95.8816C71.4752 95.9853 71.1815 96.1063 70.8877 96.1927C70.5594 96.2963 70.2311 96.4 69.9028 96.5037C69.6091 96.5901 69.3154 96.6937 69.0216 96.7801C68.6761 96.8838 68.3305 96.9702 67.9849 97.0566C67.6912 97.1257 67.3974 97.2121 67.1037 97.2812C66.7581 97.3676 66.3953 97.4367 66.0324 97.5058C65.7387 97.575 65.445 97.6441 65.1339 97.6959C64.7711 97.765 64.391 97.8169 64.0108 97.886C63.7171 97.9378 63.4406 97.9896 63.1469 98.0242C62.7495 98.076 62.3348 98.1279 61.9374 98.1624C61.6609 98.197 61.4018 98.2315 61.1253 98.2488C60.676 98.2834 60.2268 98.3179 59.7776 98.3352C59.5357 98.3352 59.311 98.3698 59.0691 98.387C58.378 98.4216 57.6868 98.4389 56.9957 98.4389C56.3046 98.4389 55.6134 98.4389 54.9223 98.387C54.6976 98.387 54.4903 98.3525 54.2657 98.3352C53.7992 98.3007 53.3326 98.2834 52.8834 98.2315C52.6242 98.2143 52.365 98.1624 52.1059 98.1451C51.6912 98.0933 51.2765 98.0588 50.8618 98.0069C50.5853 97.9724 50.3262 97.9205 50.0497 97.8687C49.6523 97.7996 49.2549 97.7477 48.8575 97.6786C48.581 97.6268 48.3218 97.5577 48.0454 97.5058C47.6652 97.4194 47.2851 97.3503 46.905 97.2639C46.6285 97.1948 46.3693 97.1257 46.0929 97.0566C45.73 96.9702 45.3499 96.8665 44.9871 96.7629C44.7106 96.6765 44.4514 96.5901 44.175 96.5037C43.8121 96.4 43.4665 96.2791 43.1037 96.1581C42.8272 96.0717 42.5681 95.968 42.3089 95.8644C41.9633 95.7434 41.6177 95.6225 41.2722 95.4842C41.013 95.3806 40.7538 95.2596 40.4773 95.1559C40.149 95.0177 39.8207 94.8795 39.4925 94.724C39.2333 94.603 38.9741 94.4821 38.7149 94.3611C38.4039 94.2056 38.0756 94.0501 37.7646 93.8946C37.5054 93.7564 37.2635 93.6181 37.0043 93.4799C36.6933 93.3071 36.3996 93.1516 36.0886 92.9788C35.8467 92.8406 35.6048 92.6851 35.3456 92.5296C35.0518 92.3568 34.7581 92.1667 34.4817 91.9767C34.2398 91.8212 33.9979 91.6484 33.7732 91.4929C33.4968 91.3028 33.2203 91.1128 32.9439 90.9054C32.702 90.7326 32.4773 90.5598 32.2527 90.3698C31.9935 90.1624 31.7171 89.9551 31.4752 89.7477C31.2506 89.5577 31.0259 89.3676 30.8186 89.1775C30.5767 88.9529 30.3175 88.7456 30.0756 88.521C29.8683 88.3309 29.6609 88.1235 29.4363 87.9162C29.2808 87.7607 29.108 87.5879 28.9525 87.4324L32.2527 80.3654L32.3045 80.4Z" fill="white"/>
<path id="Vector_7" d="M57.0302 130.283C54.162 130.283 51.8121 132.616 51.8121 135.501C51.8121 138.387 54.1447 140.719 57.0302 140.719C59.9158 140.719 62.2484 138.387 62.2484 135.501C62.2484 132.616 59.9158 130.283 57.0302 130.283Z" fill="white"/>
<path id="Vector_8" d="M14.0756 169.713C13.5054 169.488 12.7797 169.281 11.8294 169.039C11 168.832 10.3434 168.642 9.87688 168.452C9.44492 168.279 9.06479 168.037 8.77105 167.726C8.49459 167.432 8.37364 167.052 8.37364 166.551C8.37364 165.894 8.63282 165.376 9.16846 164.944C9.72137 164.495 10.568 164.27 11.6911 164.27C12.2268 164.27 12.797 164.357 13.3672 164.529C13.9201 164.702 14.4384 164.961 14.8877 165.29L15.2851 165.583L15.9762 164.357L15.6825 164.132C15.1814 163.735 14.5594 163.441 13.8337 163.216C13.1253 163.009 12.3996 162.888 11.6739 162.888C10.6544 162.888 9.79049 163.043 9.08206 163.372C8.37364 163.7 7.82072 164.149 7.45787 164.719C7.09502 165.272 6.92224 165.894 6.92224 166.568C6.92224 167.415 7.14686 168.106 7.5961 168.624C8.02807 169.126 8.54643 169.488 9.16846 169.73C9.73865 169.955 10.4989 170.18 11.432 170.421C12.2613 170.629 12.9179 170.819 13.4017 170.992C13.8337 171.147 14.1965 171.389 14.4903 171.717C14.7495 172.011 14.8877 172.391 14.8877 172.875C14.8877 173.514 14.6285 174.033 14.0929 174.465C13.5227 174.897 12.6587 175.121 11.5011 175.121C10.7063 175.121 9.94599 174.983 9.25485 174.689C8.5637 174.413 8.02807 174.05 7.66522 173.618L7.31964 173.221L6.47299 174.344L6.69761 174.603C7.18142 175.173 7.88984 175.64 8.77105 175.985C9.63498 176.331 10.568 176.503 11.5356 176.503C12.5723 176.503 13.4536 176.348 14.162 176.037C14.905 175.709 15.4579 175.259 15.8207 174.707C16.1836 174.154 16.3736 173.514 16.3736 172.858C16.3736 172.028 16.149 171.337 15.6998 170.819C15.2678 170.335 14.7495 169.955 14.1274 169.73L14.0756 169.713Z" fill="white"/>
<path id="Vector_9" d="M38.041 163.009C36.2095 163.009 34.4989 163.476 32.9611 164.374L32.6155 164.581L33.2721 165.791L33.6523 165.566C34.7754 164.892 36.0194 164.512 37.3499 164.426V176.331H38.784V164.426C40.149 164.53 41.3931 164.91 42.4816 165.566L42.8618 165.791L43.5183 164.581L43.1728 164.374C41.635 163.458 39.9071 163.009 38.041 163.009Z" fill="white"/>
<path id="Vector_10" d="M68.5205 170.525C68.5205 172.011 68.1922 173.134 67.5184 173.86C66.8618 174.586 65.9287 174.931 64.6674 174.931C63.4061 174.931 62.5248 174.603 61.8683 173.912C61.2117 173.238 60.8834 172.201 60.8834 170.854V163.009H59.432V170.905C59.432 172.616 59.8985 173.964 60.8143 174.914C61.73 175.864 63.0087 176.348 64.5983 176.348C65.7387 176.348 66.7236 176.106 67.5184 175.605C67.8985 175.381 68.2268 175.087 68.5033 174.758V176.279H69.9374V163.026H68.5033V170.543L68.5205 170.525Z" fill="white"/>
<path id="Vector_11" d="M94.0756 163.89C93.0216 163.32 91.7948 163.043 90.4471 163.043H85.229V176.296H90.4471C91.7948 176.296 93.0216 176.002 94.0756 175.45C95.1469 174.879 95.9763 174.084 96.5637 173.082C97.1512 172.08 97.4449 170.94 97.4449 169.661C97.4449 168.383 97.1512 167.242 96.5637 166.24C95.9763 165.238 95.1469 164.443 94.0756 163.873V163.89ZM86.6976 174.914V164.46H90.4125C91.5357 164.46 92.5378 164.685 93.3672 165.134C94.1966 165.583 94.8532 166.205 95.3024 166.983C95.7516 167.761 95.9935 168.676 95.9935 169.678C95.9935 170.681 95.7689 171.596 95.3024 172.374C94.8532 173.151 94.1966 173.773 93.3672 174.223C92.5378 174.672 91.5357 174.897 90.4125 174.897H86.6976V174.914Z" fill="white"/>
<path id="Vector_12" d="M114.585 164.46H117.246V174.914H114.585V176.313H121.393V174.914H118.715V164.46H121.393V163.043H114.585V164.46Z" fill="white"/>
<path id="Vector_13" d="M148.089 163.856C146.015 162.698 143.199 162.698 141.125 163.856C140.089 164.426 139.259 165.238 138.672 166.257C138.084 167.277 137.791 168.434 137.791 169.678C137.791 170.923 138.084 172.08 138.672 173.1C139.259 174.119 140.089 174.931 141.125 175.501C142.162 176.072 143.337 176.365 144.598 176.365C145.86 176.365 147.052 176.072 148.089 175.501C149.125 174.931 149.955 174.119 150.559 173.082C151.147 172.063 151.458 170.923 151.458 169.661C151.458 168.4 151.164 167.259 150.559 166.24C149.972 165.221 149.143 164.408 148.089 163.821V163.856ZM141.868 174.292C141.056 173.843 140.417 173.203 139.95 172.391C139.484 171.596 139.242 170.681 139.242 169.678C139.242 168.676 139.484 167.778 139.95 166.966C140.417 166.171 141.056 165.532 141.868 165.065C142.68 164.616 143.596 164.374 144.616 164.374C145.635 164.374 146.551 164.599 147.363 165.065C148.175 165.514 148.832 166.154 149.298 166.966C149.765 167.778 150.007 168.676 150.007 169.678C150.007 170.681 149.765 171.579 149.298 172.391C148.832 173.203 148.175 173.825 147.363 174.292C145.739 175.208 143.492 175.208 141.868 174.292Z" fill="white"/>
</g>
</g>
</svg>
